<svg width="567" height="83" viewBox="0 0 567 83" fill="none" xmlns="http://www.w3.org/2000/svg">
<path d="M1.01484 12.7598L-0.000156168 5.7998V-0.000196695H6.66984V5.7998L5.65484 12.7598H1.01484ZM5.68384 19.7778C5.04584 20.4158 4.26284 20.7348 3.33484 20.7348C2.40684 20.7348 1.61418 20.4158 0.956844 19.7778C0.318844 19.1205 -0.000156168 18.3278 -0.000156168 17.3998C-0.000156168 16.4718 0.318844 15.6888 0.956844 15.0508C1.61418 14.3935 2.40684 14.0648 3.33484 14.0648C4.26284 14.0648 5.04584 14.3935 5.68384 15.0508C6.34118 15.6888 6.66984 16.4718 6.66984 17.3998C6.66984 18.3278 6.34118 19.1205 5.68384 19.7778Z" fill="#FF065F"/>
<path d="M26.8014 18.3888C25.3174 19.8588 23.5114 20.5938 21.3834 20.5938C19.2554 20.5938 17.4494 19.8588 15.9654 18.3888C14.4954 16.9048 13.7604 15.0918 13.7604 12.9498C13.7604 10.8078 14.4954 9.0018 15.9654 7.5318C17.4494 6.0478 19.2554 5.3058 21.3834 5.3058C23.5114 5.3058 25.3174 6.0478 26.8014 7.5318C28.2854 9.0018 29.0274 10.8078 29.0274 12.9498C29.0274 15.0918 28.2854 16.9048 26.8014 18.3888ZM18.0024 16.4148C18.9124 17.3108 20.0394 17.7588 21.3834 17.7588C22.7274 17.7588 23.8544 17.3108 24.7644 16.4148C25.6744 15.5048 26.1294 14.3498 26.1294 12.9498C26.1294 11.5498 25.6744 10.3948 24.7644 9.4848C23.8544 8.5748 22.7274 8.1198 21.3834 8.1198C20.0394 8.1198 18.9124 8.5748 18.0024 9.4848C17.0924 10.3948 16.6374 11.5498 16.6374 12.9498C16.6374 14.3498 17.0924 15.5048 18.0024 16.4148ZM35.9152 20.5938C34.2632 20.5938 32.9262 20.0618 31.9042 18.9978C30.8962 17.9338 30.3922 16.5828 30.3922 14.9448C30.3922 13.1528 30.6582 11.7738 31.1902 10.8078C31.7222 9.8278 32.7932 8.9388 34.4032 8.1408C34.6412 8.0288 34.9772 7.8748 35.4112 7.6788C35.8452 7.4688 36.1392 7.3218 36.2932 7.2378C36.4612 7.1538 36.6852 7.0278 36.9652 6.8598C37.2452 6.6918 37.4412 6.5448 37.5532 6.4188C37.6792 6.2788 37.8122 6.1038 37.9522 5.8938C38.0922 5.6838 38.2042 5.4528 38.2882 5.2008L40.5142 6.4818C40.3322 7.3358 39.9192 8.0008 39.2752 8.4768C38.6452 8.9388 37.6932 9.4148 36.4192 9.9048C35.5232 10.2548 34.8722 10.6048 34.4662 10.9548C34.0602 11.3048 33.7662 11.7248 33.5842 12.2148C34.3682 11.4168 35.4182 11.0178 36.7342 11.0178C37.8962 11.0178 38.9322 11.4448 39.8422 12.2988C40.7522 13.1388 41.2072 14.2588 41.2072 15.6588C41.2072 17.1008 40.7172 18.2838 39.7372 19.2078C38.7712 20.1318 37.4972 20.5938 35.9152 20.5938ZM33.9832 17.4018C34.5012 17.8778 35.1382 18.1158 35.8942 18.1158C36.6502 18.1158 37.2732 17.8848 37.7632 17.4228C38.2532 16.9608 38.4982 16.3728 38.4982 15.6588C38.4982 14.9448 38.2532 14.3568 37.7632 13.8948C37.2732 13.4188 36.6432 13.1808 35.8732 13.1808C35.1872 13.1808 34.5712 13.3978 34.0252 13.8318C33.4932 14.2658 33.2272 14.8468 33.2272 15.5748C33.2272 16.3168 33.4792 16.9258 33.9832 17.4018ZM48.9643 9.5058C50.3783 9.5058 51.5823 10.0448 52.5763 11.1228C53.5843 12.1868 54.0883 13.4958 54.0883 15.0498C54.0883 16.6038 53.5843 17.9198 52.5763 18.9978C51.5823 20.0618 50.3783 20.5938 48.9643 20.5938C47.4943 20.5938 46.3603 20.0828 45.5623 19.0608V24.4998H42.8533V9.7998H45.5623V11.0388C46.3603 10.0168 47.4943 9.5058 48.9643 9.5058ZM46.3813 17.1918C46.9273 17.7378 47.6203 18.0108 48.4603 18.0108C49.3003 18.0108 49.9933 17.7378 50.5393 17.1918C51.0993 16.6318 51.3793 15.9178 51.3793 15.0498C51.3793 14.1818 51.0993 13.4748 50.5393 12.9288C49.9933 12.3688 49.3003 12.0888 48.4603 12.0888C47.6203 12.0888 46.9273 12.3688 46.3813 12.9288C45.8353 13.4748 45.5623 14.1818 45.5623 15.0498C45.5623 15.9178 45.8353 16.6318 46.3813 17.1918ZM63.9788 9.7998H66.6878V20.2998H63.9788V19.0608C63.1668 20.0828 62.0258 20.5938 60.5558 20.5938C59.1558 20.5938 57.9518 20.0618 56.9438 18.9978C55.9498 17.9198 55.4528 16.6038 55.4528 15.0498C55.4528 13.4958 55.9498 12.1868 56.9438 11.1228C57.9518 10.0448 59.1558 9.5058 60.5558 9.5058C62.0258 9.5058 63.1668 10.0168 63.9788 11.0388V9.7998ZM58.9808 17.1918C59.5268 17.7378 60.2198 18.0108 61.0598 18.0108C61.8998 18.0108 62.5928 17.7378 63.1388 17.1918C63.6988 16.6318 63.9788 15.9178 63.9788 15.0498C63.9788 14.1818 63.6988 13.4748 63.1388 12.9288C62.5928 12.3688 61.8998 12.0888 61.0598 12.0888C60.2198 12.0888 59.5268 12.3688 58.9808 12.9288C58.4348 13.4748 58.1618 14.1818 58.1618 15.0498C58.1618 15.9178 58.4348 16.6318 58.9808 17.1918ZM77.4183 9.7998V12.4038H74.1423V20.2998H71.4333V12.4038H68.1153V9.7998H77.4183ZM86.446 9.7998H88.462V20.2998H85.816V14.3358L80.881 20.2998H78.865V9.7998H81.511V15.7638L86.446 9.7998ZM99.2181 9.7998V12.4038H95.9421V20.2998H93.2331V12.4038H89.9151V9.7998H99.2181ZM102.544 16.1628C102.908 17.4788 103.895 18.1368 105.505 18.1368C106.541 18.1368 107.325 17.7868 107.857 17.0868L110.041 18.3468C109.005 19.8448 107.479 20.5938 105.463 20.5938C103.727 20.5938 102.334 20.0688 101.284 19.0188C100.234 17.9688 99.7086 16.6458 99.7086 15.0498C99.7086 13.4678 100.227 12.1518 101.263 11.1018C102.299 10.0378 103.629 9.5058 105.253 9.5058C106.793 9.5058 108.06 10.0378 109.054 11.1018C110.062 12.1658 110.566 13.4818 110.566 15.0498C110.566 15.3998 110.531 15.7708 110.461 16.1628H102.544ZM102.502 14.0628H107.857C107.703 13.3488 107.381 12.8168 106.891 12.4668C106.415 12.1168 105.869 11.9418 105.253 11.9418C104.525 11.9418 103.923 12.1308 103.447 12.5088C102.971 12.8728 102.656 13.3908 102.502 14.0628ZM125.267 14.9238C126.247 15.3998 126.737 16.1978 126.737 17.3178C126.737 18.1998 126.429 18.9208 125.813 19.4808C125.211 20.0268 124.35 20.2998 123.23 20.2998H117.707V9.7998H122.81C123.916 9.7998 124.77 10.0728 125.372 10.6188C125.988 11.1648 126.296 11.8788 126.296 12.7608C126.296 13.6848 125.953 14.4058 125.267 14.9238ZM122.558 12.0258H120.248V13.9158H122.558C123.328 13.9158 123.713 13.6008 123.713 12.9708C123.713 12.3408 123.328 12.0258 122.558 12.0258ZM122.915 18.0108C123.699 18.0108 124.091 17.6748 124.091 17.0028C124.091 16.7088 123.986 16.4778 123.776 16.3098C123.566 16.1418 123.279 16.0578 122.915 16.0578H120.248V18.0108H122.915ZM135.32 9.7998H138.029V20.2998H135.32V16.3098H131.141V20.2998H128.432V9.7998H131.141V13.7688H135.32V9.7998ZM148.092 9.7998H150.108V20.2998H147.462V14.3358L142.527 20.2998H140.511V9.7998H143.157V15.7638L148.092 9.7998ZM163.511 9.7998V20.2998H160.886V14.1678L158.219 18.3678H157.883L155.195 14.1258V20.2998H152.591V9.7998H155.258L158.051 14.2098L160.844 9.7998H163.511ZM173.962 9.7998H176.671V20.2998H173.962V19.0608C173.15 20.0828 172.009 20.5938 170.539 20.5938C169.139 20.5938 167.935 20.0618 166.927 18.9978C165.933 17.9198 165.436 16.6038 165.436 15.0498C165.436 13.4958 165.933 12.1868 166.927 11.1228C167.935 10.0448 169.139 9.5058 170.539 9.5058C172.009 9.5058 173.15 10.0168 173.962 11.0388V9.7998ZM168.964 17.1918C169.51 17.7378 170.203 18.0108 171.043 18.0108C171.883 18.0108 172.576 17.7378 173.122 17.1918C173.682 16.6318 173.962 15.9178 173.962 15.0498C173.962 14.1818 173.682 13.4748 173.122 12.9288C172.576 12.3688 171.883 12.0888 171.043 12.0888C170.203 12.0888 169.51 12.3688 168.964 12.9288C168.418 13.4748 168.145 14.1818 168.145 15.0498C168.145 15.9178 168.418 16.6318 168.964 17.1918ZM186.016 9.7998H188.725V20.2998H186.016V16.3098H181.837V20.2998H179.128V9.7998H181.837V13.7688H186.016V9.7998ZM198.788 9.7998H200.804V20.2998H198.158V14.3358L193.223 20.2998H191.207V9.7998H193.853V15.7638L198.788 9.7998ZM205.575 16.1628C205.939 17.4788 206.926 18.1368 208.536 18.1368C209.572 18.1368 210.356 17.7868 210.888 17.0868L213.072 18.3468C212.036 19.8448 210.51 20.5938 208.494 20.5938C206.758 20.5938 205.365 20.0688 204.315 19.0188C203.265 17.9688 202.74 16.6458 202.74 15.0498C202.74 13.4678 203.258 12.1518 204.294 11.1018C205.33 10.0378 206.66 9.5058 208.284 9.5058C209.824 9.5058 211.091 10.0378 212.085 11.1018C213.093 12.1658 213.597 13.4818 213.597 15.0498C213.597 15.3998 213.562 15.7708 213.492 16.1628H205.575ZM205.533 14.0628H210.888C210.734 13.3488 210.412 12.8168 209.922 12.4668C209.446 12.1168 208.9 11.9418 208.284 11.9418C207.556 11.9418 206.954 12.1308 206.478 12.5088C206.002 12.8728 205.687 13.3908 205.533 14.0628ZM218.217 17.4018L216.642 23.2398H214.437L215.277 17.4018H218.217ZM231.937 9.7998H234.646V20.2998H231.937V16.9608C231.153 17.2128 230.32 17.3388 229.438 17.3388C228.164 17.3388 227.142 17.0168 226.372 16.3728C225.616 15.7288 225.238 14.7908 225.238 13.5588V9.7998H227.947V13.2438C227.947 14.2938 228.598 14.8188 229.9 14.8188C230.656 14.8188 231.335 14.6858 231.937 14.4198V9.7998ZM245.377 9.7998V12.4038H242.101V20.2998H239.392V12.4038H236.074V9.7998H245.377ZM255.36 18.9978C254.282 20.0618 252.966 20.5938 251.412 20.5938C249.858 20.5938 248.542 20.0618 247.464 18.9978C246.4 17.9198 245.868 16.6038 245.868 15.0498C245.868 13.4958 246.4 12.1868 247.464 11.1228C248.542 10.0448 249.858 9.5058 251.412 9.5058C252.966 9.5058 254.282 10.0448 255.36 11.1228C256.438 12.1868 256.977 13.4958 256.977 15.0498C256.977 16.6038 256.438 17.9198 255.36 18.9978ZM249.375 17.1288C249.921 17.6748 250.6 17.9478 251.412 17.9478C252.224 17.9478 252.903 17.6748 253.449 17.1288C253.995 16.5828 254.268 15.8898 254.268 15.0498C254.268 14.2098 253.995 13.5168 253.449 12.9708C252.903 12.4248 252.224 12.1518 251.412 12.1518C250.6 12.1518 249.921 12.4248 249.375 12.9708C248.843 13.5168 248.577 14.2098 248.577 15.0498C248.577 15.8898 248.843 16.5828 249.375 17.1288ZM271.693 14.9238C272.673 15.3998 273.163 16.1978 273.163 17.3178C273.163 18.1998 272.855 18.9208 272.239 19.4808C271.637 20.0268 270.776 20.2998 269.656 20.2998H264.133V9.7998H269.236C270.342 9.7998 271.196 10.0728 271.798 10.6188C272.414 11.1648 272.722 11.8788 272.722 12.7608C272.722 13.6848 272.379 14.4058 271.693 14.9238ZM268.984 12.0258H266.674V13.9158H268.984C269.754 13.9158 270.139 13.6008 270.139 12.9708C270.139 12.3408 269.754 12.0258 268.984 12.0258ZM269.341 18.0108C270.125 18.0108 270.517 17.6748 270.517 17.0028C270.517 16.7088 270.412 16.4778 270.202 16.3098C269.992 16.1418 269.705 16.0578 269.341 16.0578H266.674V18.0108H269.341ZM279.604 13.1598C280.794 13.1598 281.753 13.4888 282.481 14.1468C283.209 14.7908 283.573 15.6518 283.573 16.7298C283.573 17.8078 283.209 18.6758 282.481 19.3338C281.753 19.9778 280.794 20.2998 279.604 20.2998H274.858V9.7998H277.567V13.1598H279.604ZM284.728 9.7998H287.437V20.2998H284.728V9.7998ZM279.625 17.9058C280.003 17.9058 280.311 17.8008 280.549 17.5908C280.801 17.3668 280.927 17.0798 280.927 16.7298C280.927 16.3798 280.801 16.0928 280.549 15.8688C280.311 15.6448 280.003 15.5328 279.625 15.5328H277.567V17.9058H279.625ZM304.758 9.7998V20.2998H302.049V12.3408H297.87V20.2998H295.161V9.7998H304.758ZM316.186 18.9978C315.108 20.0618 313.792 20.5938 312.238 20.5938C310.684 20.5938 309.368 20.0618 308.29 18.9978C307.226 17.9198 306.694 16.6038 306.694 15.0498C306.694 13.4958 307.226 12.1868 308.29 11.1228C309.368 10.0448 310.684 9.5058 312.238 9.5058C313.792 9.5058 315.108 10.0448 316.186 11.1228C317.264 12.1868 317.803 13.4958 317.803 15.0498C317.803 16.6038 317.264 17.9198 316.186 18.9978ZM310.201 17.1288C310.747 17.6748 311.426 17.9478 312.238 17.9478C313.05 17.9478 313.729 17.6748 314.275 17.1288C314.821 16.5828 315.094 15.8898 315.094 15.0498C315.094 14.2098 314.821 13.5168 314.275 12.9708C313.729 12.4248 313.05 12.1518 312.238 12.1518C311.426 12.1518 310.747 12.4248 310.201 12.9708C309.669 13.5168 309.403 14.2098 309.403 15.0498C309.403 15.8898 309.669 16.5828 310.201 17.1288ZM329.39 20.2998H326.24L322.418 15.5328V20.2998H319.709V9.7998H322.418V14.4198L326.03 9.7998H329.264L325.043 14.9868L329.39 20.2998ZM337.963 9.7998H340.672V20.2998H337.963V19.0608C337.151 20.0828 336.01 20.5938 334.54 20.5938C333.14 20.5938 331.936 20.0618 330.928 18.9978C329.934 17.9198 329.437 16.6038 329.437 15.0498C329.437 13.4958 329.934 12.1868 330.928 11.1228C331.936 10.0448 333.14 9.5058 334.54 9.5058C336.01 9.5058 337.151 10.0168 337.963 11.0388V9.7998ZM332.965 17.1918C333.511 17.7378 334.204 18.0108 335.044 18.0108C335.884 18.0108 336.577 17.7378 337.123 17.1918C337.683 16.6318 337.963 15.9178 337.963 15.0498C337.963 14.1818 337.683 13.4748 337.123 12.9288C336.577 12.3688 335.884 12.0888 335.044 12.0888C334.204 12.0888 333.511 12.3688 332.965 12.9288C332.419 13.4748 332.146 14.1818 332.146 15.0498C332.146 15.9178 332.419 16.6318 332.965 17.1918ZM355.267 9.7998H357.976V20.2998H355.267V16.3098H351.088V20.2998H348.379V9.7998H351.088V13.7688H355.267V9.7998ZM362.747 16.1628C363.111 17.4788 364.098 18.1368 365.708 18.1368C366.744 18.1368 367.528 17.7868 368.06 17.0868L370.244 18.3468C369.208 19.8448 367.682 20.5938 365.666 20.5938C363.93 20.5938 362.537 20.0688 361.487 19.0188C360.437 17.9688 359.912 16.6458 359.912 15.0498C359.912 13.4678 360.43 12.1518 361.466 11.1018C362.502 10.0378 363.832 9.5058 365.456 9.5058C366.996 9.5058 368.263 10.0378 369.257 11.1018C370.265 12.1658 370.769 13.4818 370.769 15.0498C370.769 15.3998 370.734 15.7708 370.664 16.1628H362.747ZM362.705 14.0628H368.06C367.906 13.3488 367.584 12.8168 367.094 12.4668C366.618 12.1168 366.072 11.9418 365.456 11.9418C364.728 11.9418 364.126 12.1308 363.65 12.5088C363.174 12.8728 362.859 13.3908 362.705 14.0628ZM384.063 14.9448C385.127 15.4628 385.659 16.2958 385.659 17.4438C385.659 18.3398 385.288 19.0888 384.546 19.6908C383.804 20.2928 382.761 20.5938 381.417 20.5938C379.289 20.5938 377.84 19.7538 377.07 18.0738L379.275 16.7718C379.611 17.7238 380.332 18.1998 381.438 18.1998C381.942 18.1998 382.327 18.1018 382.593 17.9058C382.873 17.7098 383.013 17.4438 383.013 17.1078C383.013 16.4638 382.6 16.1418 381.774 16.1418H380.283V13.8318H381.417C382.229 13.8318 382.635 13.5098 382.635 12.8658C382.635 12.5578 382.516 12.3128 382.278 12.1308C382.04 11.9488 381.725 11.8578 381.333 11.8578C380.423 11.8578 379.772 12.2988 379.38 13.1808L377.196 11.9208C377.994 10.3108 379.359 9.5058 381.291 9.5058C382.495 9.5058 383.447 9.8138 384.147 10.4298C384.861 11.0318 385.218 11.7668 385.218 12.6348C385.218 13.6568 384.833 14.4268 384.063 14.9448ZM395.344 9.7998H398.053V20.2998H395.344V19.0608C394.532 20.0828 393.391 20.5938 391.921 20.5938C390.521 20.5938 389.317 20.0618 388.309 18.9978C387.315 17.9198 386.818 16.6038 386.818 15.0498C386.818 13.4958 387.315 12.1868 388.309 11.1228C389.317 10.0448 390.521 9.5058 391.921 9.5058C393.391 9.5058 394.532 10.0168 395.344 11.0388V9.7998ZM390.346 17.1918C390.892 17.7378 391.585 18.0108 392.425 18.0108C393.265 18.0108 393.958 17.7378 394.504 17.1918C395.064 16.6318 395.344 15.9178 395.344 15.0498C395.344 14.1818 395.064 13.4748 394.504 12.9288C393.958 12.3688 393.265 12.0888 392.425 12.0888C391.585 12.0888 390.892 12.3688 390.346 12.9288C389.8 13.4748 389.527 14.1818 389.527 15.0498C389.527 15.9178 389.8 16.6318 390.346 17.1918ZM406.621 9.5058C408.035 9.5058 409.239 10.0448 410.233 11.1228C411.241 12.1868 411.745 13.4958 411.745 15.0498C411.745 16.6038 411.241 17.9198 410.233 18.9978C409.239 20.0618 408.035 20.5938 406.621 20.5938C405.151 20.5938 404.017 20.0828 403.219 19.0608V24.4998H400.51V9.7998H403.219V11.0388C404.017 10.0168 405.151 9.5058 406.621 9.5058ZM404.038 17.1918C404.584 17.7378 405.277 18.0108 406.117 18.0108C406.957 18.0108 407.65 17.7378 408.196 17.1918C408.756 16.6318 409.036 15.9178 409.036 15.0498C409.036 14.1818 408.756 13.4748 408.196 12.9288C407.65 12.3688 406.957 12.0888 406.117 12.0888C405.277 12.0888 404.584 12.3688 404.038 12.9288C403.492 13.4748 403.219 14.1818 403.219 15.0498C403.219 15.9178 403.492 16.6318 404.038 17.1918ZM415.944 16.1628C416.308 17.4788 417.295 18.1368 418.905 18.1368C419.941 18.1368 420.725 17.7868 421.257 17.0868L423.441 18.3468C422.405 19.8448 420.879 20.5938 418.863 20.5938C417.127 20.5938 415.734 20.0688 414.684 19.0188C413.634 17.9688 413.109 16.6458 413.109 15.0498C413.109 13.4678 413.627 12.1518 414.663 11.1018C415.699 10.0378 417.029 9.5058 418.653 9.5058C420.193 9.5058 421.46 10.0378 422.454 11.1018C423.462 12.1658 423.966 13.4818 423.966 15.0498C423.966 15.3998 423.931 15.7708 423.861 16.1628H415.944ZM415.902 14.0628H421.257C421.103 13.3488 420.781 12.8168 420.291 12.4668C419.815 12.1168 419.269 11.9418 418.653 11.9418C417.925 11.9418 417.323 12.1308 416.847 12.5088C416.371 12.8728 416.056 13.3908 415.902 14.0628ZM433.039 9.7998V12.4038H428.566V20.2998H425.857V9.7998H433.039ZM442.072 9.7998H444.088V20.2998H441.442V14.3358L436.507 20.2998H434.491V9.7998H437.137V15.7638L442.072 9.7998ZM451.568 20.5938C449.986 20.5938 448.663 20.0618 447.599 18.9978C446.549 17.9338 446.024 16.6178 446.024 15.0498C446.024 13.4818 446.549 12.1658 447.599 11.1018C448.663 10.0378 449.986 9.5058 451.568 9.5058C452.59 9.5058 453.521 9.7508 454.361 10.2408C455.201 10.7308 455.838 11.3888 456.272 12.2148L453.941 13.5798C453.731 13.1458 453.409 12.8028 452.975 12.5508C452.555 12.2988 452.079 12.1728 451.547 12.1728C450.735 12.1728 450.063 12.4458 449.531 12.9918C448.999 13.5238 448.733 14.2098 448.733 15.0498C448.733 15.8758 448.999 16.5618 449.531 17.1078C450.063 17.6398 450.735 17.9058 451.547 17.9058C452.093 17.9058 452.576 17.7868 452.996 17.5488C453.43 17.2968 453.752 16.9538 453.962 16.5198L456.314 17.8638C455.852 18.6898 455.201 19.3548 454.361 19.8588C453.521 20.3488 452.59 20.5938 451.568 20.5938ZM465.959 9.7998V12.4038H462.683V20.2998H459.974V12.4038H456.656V9.7998H465.959ZM473.517 9.5058C474.931 9.5058 476.135 10.0448 477.129 11.1228C478.137 12.1868 478.641 13.4958 478.641 15.0498C478.641 16.6038 478.137 17.9198 477.129 18.9978C476.135 20.0618 474.931 20.5938 473.517 20.5938C472.047 20.5938 470.913 20.0828 470.115 19.0608V24.4998H467.406V9.7998H470.115V11.0388C470.913 10.0168 472.047 9.5058 473.517 9.5058ZM470.934 17.1918C471.48 17.7378 472.173 18.0108 473.013 18.0108C473.853 18.0108 474.546 17.7378 475.092 17.1918C475.652 16.6318 475.932 15.9178 475.932 15.0498C475.932 14.1818 475.652 13.4748 475.092 12.9288C474.546 12.3688 473.853 12.0888 473.013 12.0888C472.173 12.0888 471.48 12.3688 470.934 12.9288C470.388 13.4748 470.115 14.1818 470.115 15.0498C470.115 15.9178 470.388 16.6318 470.934 17.1918ZM488.133 9.7998H490.149V20.2998H487.503V14.3358L482.568 20.2998H480.552V9.7998H483.198V15.7638L488.133 9.7998ZM498.742 9.5058C500.156 9.5058 501.36 10.0448 502.354 11.1228C503.362 12.1868 503.866 13.4958 503.866 15.0498C503.866 16.6038 503.362 17.9198 502.354 18.9978C501.36 20.0618 500.156 20.5938 498.742 20.5938C497.272 20.5938 496.138 20.0828 495.34 19.0608V24.4998H492.631V9.7998H495.34V11.0388C496.138 10.0168 497.272 9.5058 498.742 9.5058ZM496.159 17.1918C496.705 17.7378 497.398 18.0108 498.238 18.0108C499.078 18.0108 499.771 17.7378 500.317 17.1918C500.877 16.6318 501.157 15.9178 501.157 15.0498C501.157 14.1818 500.877 13.4748 500.317 12.9288C499.771 12.3688 499.078 12.0888 498.238 12.0888C497.398 12.0888 496.705 12.3688 496.159 12.9288C495.613 13.4748 495.34 14.1818 495.34 15.0498C495.34 15.9178 495.613 16.6318 496.159 17.1918ZM514.722 18.9978C513.644 20.0618 512.328 20.5938 510.774 20.5938C509.22 20.5938 507.904 20.0618 506.826 18.9978C505.762 17.9198 505.23 16.6038 505.23 15.0498C505.23 13.4958 505.762 12.1868 506.826 11.1228C507.904 10.0448 509.22 9.5058 510.774 9.5058C512.328 9.5058 513.644 10.0448 514.722 11.1228C515.8 12.1868 516.339 13.4958 516.339 15.0498C516.339 16.6038 515.8 17.9198 514.722 18.9978ZM508.737 17.1288C509.283 17.6748 509.962 17.9478 510.774 17.9478C511.586 17.9478 512.265 17.6748 512.811 17.1288C513.357 16.5828 513.63 15.8898 513.63 15.0498C513.63 14.2098 513.357 13.5168 512.811 12.9708C512.265 12.4248 511.586 12.1518 510.774 12.1518C509.962 12.1518 509.283 12.4248 508.737 12.9708C508.205 13.5168 507.939 14.2098 507.939 15.0498C507.939 15.8898 508.205 16.5828 508.737 17.1288ZM525.805 14.9238C526.785 15.3998 527.275 16.1978 527.275 17.3178C527.275 18.1998 526.967 18.9208 526.351 19.4808C525.749 20.0268 524.888 20.2998 523.768 20.2998H518.245V9.7998H523.348C524.454 9.7998 525.308 10.0728 525.91 10.6188C526.526 11.1648 526.834 11.8788 526.834 12.7608C526.834 13.6848 526.491 14.4058 525.805 14.9238ZM523.096 12.0258H520.786V13.9158H523.096C523.866 13.9158 524.251 13.6008 524.251 12.9708C524.251 12.3408 523.866 12.0258 523.096 12.0258ZM523.453 18.0108C524.237 18.0108 524.629 17.6748 524.629 17.0028C524.629 16.7088 524.524 16.4778 524.314 16.3098C524.104 16.1418 523.817 16.0578 523.453 16.0578H520.786V18.0108H523.453ZM536.95 9.7998H539.659V20.2998H536.95V19.0608C536.138 20.0828 534.997 20.5938 533.527 20.5938C532.127 20.5938 530.923 20.0618 529.915 18.9978C528.921 17.9198 528.424 16.6038 528.424 15.0498C528.424 13.4958 528.921 12.1868 529.915 11.1228C530.923 10.0448 532.127 9.5058 533.527 9.5058C534.997 9.5058 536.138 10.0168 536.95 11.0388V9.7998ZM531.952 17.1918C532.498 17.7378 533.191 18.0108 534.031 18.0108C534.871 18.0108 535.564 17.7378 536.11 17.1918C536.67 16.6318 536.95 15.9178 536.95 15.0498C536.95 14.1818 536.67 13.4748 536.11 12.9288C535.564 12.3688 534.871 12.0888 534.031 12.0888C533.191 12.0888 532.498 12.3688 531.952 12.9288C531.406 13.4748 531.133 14.1818 531.133 15.0498C531.133 15.9178 531.406 16.6318 531.952 17.1918ZM549.004 9.7998H551.713V20.2998H549.004V16.3098H544.825V20.2998H542.116V9.7998H544.825V13.7688H549.004V9.7998ZM558.941 13.1598C560.131 13.1598 561.09 13.4888 561.818 14.1468C562.546 14.7908 562.91 15.6518 562.91 16.7298C562.91 17.8078 562.546 18.6758 561.818 19.3338C561.09 19.9778 560.131 20.2998 558.941 20.2998H554.195V9.7998H556.904V13.1598H558.941ZM564.065 9.7998H566.774V20.2998H564.065V9.7998ZM558.962 17.9058C559.34 17.9058 559.648 17.8008 559.886 17.5908C560.138 17.3668 560.264 17.0798 560.264 16.7298C560.264 16.3798 560.138 16.0928 559.886 15.8688C559.648 15.6448 559.34 15.5328 558.962 15.5328H556.904V17.9058H558.962ZM6.96684 38.7998H9.67584V49.2998H6.96684V45.3098H2.78784V49.2998H0.0788438V38.7998H2.78784V42.7688H6.96684V38.7998ZM20.1379 38.7998H22.8469V49.2998H20.1379V48.0608C19.3259 49.0828 18.1849 49.5938 16.7149 49.5938C15.3149 49.5938 14.1109 49.0618 13.1029 47.9978C12.1089 46.9198 11.6119 45.6038 11.6119 44.0498C11.6119 42.4958 12.1089 41.1868 13.1029 40.1228C14.1109 39.0448 15.3149 38.5058 16.7149 38.5058C18.1849 38.5058 19.3259 39.0168 20.1379 40.0388V38.7998ZM15.1399 46.1918C15.6859 46.7378 16.3789 47.0108 17.2189 47.0108C18.0589 47.0108 18.7519 46.7378 19.2979 46.1918C19.8579 45.6318 20.1379 44.9178 20.1379 44.0498C20.1379 43.1818 19.8579 42.4748 19.2979 41.9288C18.7519 41.3688 18.0589 41.0888 17.2189 41.0888C16.3789 41.0888 15.6859 41.3688 15.1399 41.9288C14.5939 42.4748 14.3209 43.1818 14.3209 44.0498C14.3209 44.9178 14.5939 45.6318 15.1399 46.1918ZM38.1345 38.7998H40.1505V49.2998H37.5045V43.3358L32.5695 49.2998H30.5535V38.7998H33.1995V44.7638L38.1345 38.7998ZM49.8146 38.7998V41.4038H45.3416V49.2998H42.6326V38.7998H49.8146ZM57.3773 38.5058C58.7913 38.5058 59.9953 39.0448 60.9893 40.1228C61.9973 41.1868 62.5013 42.4958 62.5013 44.0498C62.5013 45.6038 61.9973 46.9198 60.9893 47.9978C59.9953 49.0618 58.7913 49.5938 57.3773 49.5938C55.9073 49.5938 54.7733 49.0828 53.9753 48.0608V53.4998H51.2663V38.7998H53.9753V40.0388C54.7733 39.0168 55.9073 38.5058 57.3773 38.5058ZM54.7943 46.1918C55.3403 46.7378 56.0333 47.0108 56.8733 47.0108C57.7133 47.0108 58.4063 46.7378 58.9523 46.1918C59.5123 45.6318 59.7923 44.9178 59.7923 44.0498C59.7923 43.1818 59.5123 42.4748 58.9523 41.9288C58.4063 41.3688 57.7133 41.0888 56.8733 41.0888C56.0333 41.0888 55.3403 41.3688 54.7943 41.9288C54.2483 42.4748 53.9753 43.1818 53.9753 44.0498C53.9753 44.9178 54.2483 45.6318 54.7943 46.1918ZM70.8477 38.7998H73.7457L69.9237 49.2998C68.8597 52.2538 67.0117 53.6538 64.3797 53.4998V50.9798C65.0937 50.9938 65.6537 50.8608 66.0597 50.5808C66.4797 50.3008 66.8157 49.8318 67.0677 49.1738L62.8257 38.7998H65.7027L68.5167 45.8558L70.8477 38.7998ZM75.9627 49.0478C75.6127 49.3978 75.1927 49.5728 74.7027 49.5728C74.2127 49.5728 73.7927 49.3978 73.4427 49.0478C73.0927 48.6978 72.9177 48.2778 72.9177 47.7878C72.9177 47.2978 73.0927 46.8778 73.4427 46.5278C73.7927 46.1778 74.2127 46.0028 74.7027 46.0028C75.1927 46.0028 75.6127 46.1778 75.9627 46.5278C76.3127 46.8778 76.4877 47.2978 76.4877 47.7878C76.4877 48.2778 76.3127 48.6978 75.9627 49.0478ZM95.4208 46.5278H96.9958V52.1138H94.0978V49.2998H85.9708V52.1138H83.0728V46.5278H84.5008C85.3128 45.3938 85.7188 43.7348 85.7188 41.5508V34.5998H95.4208V46.5278ZM87.6088 46.5278H92.5228V37.3088H88.6168V41.5928C88.6168 43.7208 88.2808 45.3658 87.6088 46.5278ZM107.339 47.9978C106.261 49.0618 104.945 49.5938 103.391 49.5938C101.837 49.5938 100.521 49.0618 99.4433 47.9978C98.3793 46.9198 97.8473 45.6038 97.8473 44.0498C97.8473 42.4958 98.3793 41.1868 99.4433 40.1228C100.521 39.0448 101.837 38.5058 103.391 38.5058C104.945 38.5058 106.261 39.0448 107.339 40.1228C108.417 41.1868 108.956 42.4958 108.956 44.0498C108.956 45.6038 108.417 46.9198 107.339 47.9978ZM101.354 46.1288C101.9 46.6748 102.579 46.9478 103.391 46.9478C104.203 46.9478 104.882 46.6748 105.428 46.1288C105.974 45.5828 106.247 44.8898 106.247 44.0498C106.247 43.2098 105.974 42.5168 105.428 41.9708C104.882 41.4248 104.203 41.1518 103.391 41.1518C102.579 41.1518 101.9 41.4248 101.354 41.9708C100.822 42.5168 100.556 43.2098 100.556 44.0498C100.556 44.8898 100.822 45.5828 101.354 46.1288ZM124.196 49.2998H121.151L117.938 44.5958V49.2998H115.292V44.5958L112.079 49.2998H109.055L112.835 43.9868L109.265 38.7998H112.289L115.292 43.3568V38.7998H117.938V43.3568L120.941 38.7998H123.986L120.395 43.9868L124.196 49.2998ZM135.139 46.7588H136.525V52.1138H133.879V49.2998H127.369V52.1138H124.723V46.7588H126.004C126.606 45.8628 126.907 44.6238 126.907 43.0418V38.7998H135.139V46.7588ZM128.902 46.7588H132.493V41.2358H129.553V43.0418C129.553 44.5258 129.336 45.7648 128.902 46.7588ZM145.821 38.7998H147.837V49.2998H145.191V43.3358L140.256 49.2998H138.24V38.7998H140.886V44.7638L145.821 38.7998ZM158.593 38.7998V41.4038H155.317V49.2998H152.608V41.4038H149.29V38.7998H158.593ZM161.919 45.1628C162.283 46.4788 163.27 47.1368 164.88 47.1368C165.916 47.1368 166.7 46.7868 167.232 46.0868L169.416 47.3468C168.38 48.8448 166.854 49.5938 164.838 49.5938C163.102 49.5938 161.709 49.0688 160.659 48.0188C159.609 46.9688 159.084 45.6458 159.084 44.0498C159.084 42.4678 159.602 41.1518 160.638 40.1018C161.674 39.0378 163.004 38.5058 164.628 38.5058C166.168 38.5058 167.435 39.0378 168.429 40.1018C169.437 41.1658 169.941 42.4818 169.941 44.0498C169.941 44.3998 169.906 44.7708 169.836 45.1628H161.919ZM161.877 43.0628H167.232C167.078 42.3488 166.756 41.8168 166.266 41.4668C165.79 41.1168 165.244 40.9418 164.628 40.9418C163.9 40.9418 163.298 41.1308 162.822 41.5088C162.346 41.8728 162.031 42.3908 161.877 43.0628ZM176.748 49.5938C175.166 49.5938 173.843 49.0618 172.779 47.9978C171.729 46.9338 171.204 45.6178 171.204 44.0498C171.204 42.4818 171.729 41.1658 172.779 40.1018C173.843 39.0378 175.166 38.5058 176.748 38.5058C177.77 38.5058 178.701 38.7508 179.541 39.2408C180.381 39.7308 181.018 40.3888 181.452 41.2148L179.121 42.5798C178.911 42.1458 178.589 41.8028 178.155 41.5508C177.735 41.2988 177.259 41.1728 176.727 41.1728C175.915 41.1728 175.243 41.4458 174.711 41.9918C174.179 42.5238 173.913 43.2098 173.913 44.0498C173.913 44.8758 174.179 45.5618 174.711 46.1078C175.243 46.6398 175.915 46.9058 176.727 46.9058C177.273 46.9058 177.756 46.7868 178.176 46.5488C178.61 46.2968 178.932 45.9538 179.142 45.5198L181.494 46.8638C181.032 47.6898 180.381 48.3548 179.541 48.8588C178.701 49.3488 177.77 49.5938 176.748 49.5938ZM187.755 42.1598C188.945 42.1598 189.904 42.4888 190.632 43.1468C191.36 43.7908 191.724 44.6518 191.724 45.7298C191.724 46.8078 191.36 47.6758 190.632 48.3338C189.904 48.9778 188.945 49.2998 187.755 49.2998H183.009V38.7998H185.718V42.1598H187.755ZM187.776 46.9058C188.154 46.9058 188.462 46.8008 188.7 46.5908C188.952 46.3668 189.078 46.0798 189.078 45.7298C189.078 45.3798 188.952 45.0928 188.7 44.8688C188.462 44.6448 188.154 44.5328 187.776 44.5328H185.718V46.9058H187.776ZM205.523 38.7998H208.421L204.599 49.2998C203.535 52.2538 201.687 53.6538 199.055 53.4998V50.9798C199.769 50.9938 200.329 50.8608 200.735 50.5808C201.155 50.3008 201.491 49.8318 201.743 49.1738L197.501 38.7998H200.378L203.192 45.8558L205.523 38.7998ZM217.27 43.9238C218.25 44.3998 218.74 45.1978 218.74 46.3178C218.74 47.1998 218.432 47.9208 217.816 48.4808C217.214 49.0268 216.353 49.2998 215.233 49.2998H209.71V38.7998H214.813C215.919 38.7998 216.773 39.0728 217.375 39.6188C217.991 40.1648 218.299 40.8788 218.299 41.7608C218.299 42.6848 217.956 43.4058 217.27 43.9238ZM214.561 41.0258H212.251V42.9158H214.561C215.331 42.9158 215.716 42.6008 215.716 41.9708C215.716 41.3408 215.331 41.0258 214.561 41.0258ZM214.918 47.0108C215.702 47.0108 216.094 46.6748 216.094 46.0028C216.094 45.7088 215.989 45.4778 215.779 45.3098C215.569 45.1418 215.282 45.0578 214.918 45.0578H212.251V47.0108H214.918ZM222.724 45.1628C223.088 46.4788 224.075 47.1368 225.685 47.1368C226.721 47.1368 227.505 46.7868 228.037 46.0868L230.221 47.3468C229.185 48.8448 227.659 49.5938 225.643 49.5938C223.907 49.5938 222.514 49.0688 221.464 48.0188C220.414 46.9688 219.889 45.6458 219.889 44.0498C219.889 42.4678 220.407 41.1518 221.443 40.1018C222.479 39.0378 223.809 38.5058 225.433 38.5058C226.973 38.5058 228.24 39.0378 229.234 40.1018C230.242 41.1658 230.746 42.4818 230.746 44.0498C230.746 44.3998 230.711 44.7708 230.641 45.1628H222.724ZM222.682 43.0628H228.037C227.883 42.3488 227.561 41.8168 227.071 41.4668C226.595 41.1168 226.049 40.9418 225.433 40.9418C224.705 40.9418 224.103 41.1308 223.627 41.5088C223.151 41.8728 222.836 42.3908 222.682 43.0628ZM241.677 46.7588H243.063V52.1138H240.417V49.2998H233.907V52.1138H231.261V46.7588H232.542C233.144 45.8628 233.445 44.6238 233.445 43.0418V38.7998H241.677V46.7588ZM235.44 46.7588H239.031V41.2358H236.091V43.0418C236.091 44.5258 235.874 45.7648 235.44 46.7588ZM253.314 47.9978C252.236 49.0618 250.92 49.5938 249.366 49.5938C247.812 49.5938 246.496 49.0618 245.418 47.9978C244.354 46.9198 243.822 45.6038 243.822 44.0498C243.822 42.4958 244.354 41.1868 245.418 40.1228C246.496 39.0448 247.812 38.5058 249.366 38.5058C250.92 38.5058 252.236 39.0448 253.314 40.1228C254.392 41.1868 254.931 42.4958 254.931 44.0498C254.931 45.6038 254.392 46.9198 253.314 47.9978ZM247.329 46.1288C247.875 46.6748 248.554 46.9478 249.366 46.9478C250.178 46.9478 250.857 46.6748 251.403 46.1288C251.949 45.5828 252.222 44.8898 252.222 44.0498C252.222 43.2098 251.949 42.5168 251.403 41.9708C250.857 41.4248 250.178 41.1518 249.366 41.1518C248.554 41.1518 247.875 41.4248 247.329 41.9708C246.797 42.5168 246.531 43.2098 246.531 44.0498C246.531 44.8898 246.797 45.5828 247.329 46.1288ZM267.757 38.7998V49.2998H265.132V43.1678L262.465 47.3678H262.129L259.441 43.1258V49.2998H256.837V38.7998H259.504L262.297 43.2098L265.09 38.7998H267.757ZM279.237 38.7998V49.2998H276.528V41.4038H273.63V44.9108C273.63 48.1588 272.153 49.6218 269.199 49.2998V46.7588C269.759 46.8988 270.186 46.8078 270.48 46.4858C270.774 46.1498 270.921 45.5758 270.921 44.7638V38.7998H279.237ZM283.981 45.1628C284.345 46.4788 285.332 47.1368 286.942 47.1368C287.978 47.1368 288.762 46.7868 289.294 46.0868L291.478 47.3468C290.442 48.8448 288.916 49.5938 286.9 49.5938C285.164 49.5938 283.771 49.0688 282.721 48.0188C281.671 46.9688 281.146 45.6458 281.146 44.0498C281.146 42.4678 281.664 41.1518 282.7 40.1018C283.736 39.0378 285.066 38.5058 286.69 38.5058C288.23 38.5058 289.497 39.0378 290.491 40.1018C291.499 41.1658 292.003 42.4818 292.003 44.0498C292.003 44.3998 291.968 44.7708 291.898 45.1628H283.981ZM283.939 43.0628H289.294C289.14 42.3488 288.818 41.8168 288.328 41.4668C287.852 41.1168 287.306 40.9418 286.69 40.9418C285.962 40.9418 285.36 41.1308 284.884 41.5088C284.408 41.8728 284.093 42.3908 283.939 43.0628ZM300.782 38.7998H303.491V49.2998H300.782V45.3098H296.603V49.2998H293.894V38.7998H296.603V42.7688H300.782V38.7998ZM313.554 38.7998H315.57V49.2998H312.924V43.3358L307.989 49.2998H305.973V38.7998H308.619V44.7638L313.554 38.7998ZM326.473 38.7998V49.2998H323.827V46.0238H322.882L320.467 49.2998H317.338L319.963 45.7088C319.291 45.4288 318.752 44.9878 318.346 44.3858C317.954 43.7698 317.758 43.1118 317.758 42.4118C317.758 41.4318 318.108 40.5848 318.808 39.8708C319.508 39.1568 320.425 38.7998 321.559 38.7998H326.473ZM321.769 41.2148C321.377 41.2148 321.048 41.3338 320.782 41.5718C320.53 41.7958 320.404 42.1038 320.404 42.4958C320.404 42.8738 320.53 43.1748 320.782 43.3988C321.048 43.6228 321.377 43.7348 321.769 43.7348H323.827V41.2148H321.769ZM343.138 47.9978C342.06 49.0618 340.744 49.5938 339.19 49.5938C337.636 49.5938 336.32 49.0618 335.242 47.9978C334.178 46.9198 333.646 45.6038 333.646 44.0498C333.646 42.4958 334.178 41.1868 335.242 40.1228C336.32 39.0448 337.636 38.5058 339.19 38.5058C340.744 38.5058 342.06 39.0448 343.138 40.1228C344.216 41.1868 344.755 42.4958 344.755 44.0498C344.755 45.6038 344.216 46.9198 343.138 47.9978ZM337.153 46.1288C337.699 46.6748 338.378 46.9478 339.19 46.9478C340.002 46.9478 340.681 46.6748 341.227 46.1288C341.773 45.5828 342.046 44.8898 342.046 44.0498C342.046 43.2098 341.773 42.5168 341.227 41.9708C340.681 41.4248 340.002 41.1518 339.19 41.1518C338.378 41.1518 337.699 41.4248 337.153 41.9708C336.621 42.5168 336.355 43.2098 336.355 44.0498C336.355 44.8898 336.621 45.5828 337.153 46.1288ZM351.638 49.5938C349.986 49.5938 348.649 49.0618 347.627 47.9978C346.619 46.9338 346.115 45.5828 346.115 43.9448C346.115 42.1528 346.381 40.7738 346.913 39.8078C347.445 38.8278 348.516 37.9388 350.126 37.1408C350.364 37.0288 350.7 36.8748 351.134 36.6788C351.568 36.4688 351.862 36.3218 352.016 36.2378C352.184 36.1538 352.408 36.0278 352.688 35.8598C352.968 35.6918 353.164 35.5448 353.276 35.4188C353.402 35.2788 353.535 35.1038 353.675 34.8938C353.815 34.6838 353.927 34.4528 354.011 34.2008L356.237 35.4818C356.055 36.3358 355.642 37.0008 354.998 37.4768C354.368 37.9388 353.416 38.4148 352.142 38.9048C351.246 39.2548 350.595 39.6048 350.189 39.9548C349.783 40.3048 349.489 40.7248 349.307 41.2148C350.091 40.4168 351.141 40.0178 352.457 40.0178C353.619 40.0178 354.655 40.4448 355.565 41.2988C356.475 42.1388 356.93 43.2588 356.93 44.6588C356.93 46.1008 356.44 47.2838 355.46 48.2078C354.494 49.1318 353.22 49.5938 351.638 49.5938ZM349.706 46.4018C350.224 46.8778 350.861 47.1158 351.617 47.1158C352.373 47.1158 352.996 46.8848 353.486 46.4228C353.976 45.9608 354.221 45.3728 354.221 44.6588C354.221 43.9448 353.976 43.3568 353.486 42.8948C352.996 42.4188 352.366 42.1808 351.596 42.1808C350.91 42.1808 350.294 42.3978 349.748 42.8318C349.216 43.2658 348.95 43.8468 348.95 44.5748C348.95 45.3168 349.202 45.9258 349.706 46.4018ZM372.772 47.9978C371.694 49.0618 370.378 49.5938 368.824 49.5938C367.27 49.5938 365.954 49.0618 364.876 47.9978C363.812 46.9198 363.28 45.6038 363.28 44.0498C363.28 42.4958 363.812 41.1868 364.876 40.1228C365.954 39.0448 367.27 38.5058 368.824 38.5058C370.378 38.5058 371.694 39.0448 372.772 40.1228C373.85 41.1868 374.389 42.4958 374.389 44.0498C374.389 45.6038 373.85 46.9198 372.772 47.9978ZM366.787 46.1288C367.333 46.6748 368.012 46.9478 368.824 46.9478C369.636 46.9478 370.315 46.6748 370.861 46.1288C371.407 45.5828 371.68 44.8898 371.68 44.0498C371.68 43.2098 371.407 42.5168 370.861 41.9708C370.315 41.4248 369.636 41.1518 368.824 41.1518C368.012 41.1518 367.333 41.4248 366.787 41.9708C366.255 42.5168 365.989 43.2098 365.989 44.0498C365.989 44.8898 366.255 45.5828 366.787 46.1288ZM381.293 49.5938C379.711 49.5938 378.388 49.0618 377.324 47.9978C376.274 46.9338 375.749 45.6178 375.749 44.0498C375.749 42.4818 376.274 41.1658 377.324 40.1018C378.388 39.0378 379.711 38.5058 381.293 38.5058C382.315 38.5058 383.246 38.7508 384.086 39.2408C384.926 39.7308 385.563 40.3888 385.997 41.2148L383.666 42.5798C383.456 42.1458 383.134 41.8028 382.7 41.5508C382.28 41.2988 381.804 41.1728 381.272 41.1728C380.46 41.1728 379.788 41.4458 379.256 41.9918C378.724 42.5238 378.458 43.2098 378.458 44.0498C378.458 44.8758 378.724 45.5618 379.256 46.1078C379.788 46.6398 380.46 46.9058 381.272 46.9058C381.818 46.9058 382.301 46.7868 382.721 46.5488C383.155 46.2968 383.477 45.9538 383.687 45.5198L386.039 46.8638C385.577 47.6898 384.926 48.3548 384.086 48.8588C383.246 49.3488 382.315 49.5938 381.293 49.5938ZM395.113 43.9238C396.093 44.3998 396.583 45.1978 396.583 46.3178C396.583 47.1998 396.275 47.9208 395.659 48.4808C395.057 49.0268 394.196 49.2998 393.076 49.2998H387.553V38.7998H392.656C393.762 38.7998 394.616 39.0728 395.218 39.6188C395.834 40.1648 396.142 40.8788 396.142 41.7608C396.142 42.6848 395.799 43.4058 395.113 43.9238ZM392.404 41.0258H390.094V42.9158H392.404C393.174 42.9158 393.559 42.6008 393.559 41.9708C393.559 41.3408 393.174 41.0258 392.404 41.0258ZM392.761 47.0108C393.545 47.0108 393.937 46.6748 393.937 46.0028C393.937 45.7088 393.832 45.4778 393.622 45.3098C393.412 45.1418 393.125 45.0578 392.761 45.0578H390.094V47.0108H392.761ZM407.225 47.9978C406.147 49.0618 404.831 49.5938 403.277 49.5938C401.723 49.5938 400.407 49.0618 399.329 47.9978C398.265 46.9198 397.733 45.6038 397.733 44.0498C397.733 42.4958 398.265 41.1868 399.329 40.1228C400.407 39.0448 401.723 38.5058 403.277 38.5058C404.831 38.5058 406.147 39.0448 407.225 40.1228C408.303 41.1868 408.842 42.4958 408.842 44.0498C408.842 45.6038 408.303 46.9198 407.225 47.9978ZM401.24 46.1288C401.786 46.6748 402.465 46.9478 403.277 46.9478C404.089 46.9478 404.768 46.6748 405.314 46.1288C405.86 45.5828 406.133 44.8898 406.133 44.0498C406.133 43.2098 405.86 42.5168 405.314 41.9708C404.768 41.4248 404.089 41.1518 403.277 41.1518C402.465 41.1518 401.786 41.4248 401.24 41.9708C400.708 42.5168 400.442 43.2098 400.442 44.0498C400.442 44.8898 400.708 45.5828 401.24 46.1288ZM415.725 49.5938C414.073 49.5938 412.736 49.0618 411.714 47.9978C410.706 46.9338 410.202 45.5828 410.202 43.9448C410.202 42.1528 410.468 40.7738 411 39.8078C411.532 38.8278 412.603 37.9388 414.213 37.1408C414.451 37.0288 414.787 36.8748 415.221 36.6788C415.655 36.4688 415.949 36.3218 416.103 36.2378C416.271 36.1538 416.495 36.0278 416.775 35.8598C417.055 35.6918 417.251 35.5448 417.363 35.4188C417.489 35.2788 417.622 35.1038 417.762 34.8938C417.902 34.6838 418.014 34.4528 418.098 34.2008L420.324 35.4818C420.142 36.3358 419.729 37.0008 419.085 37.4768C418.455 37.9388 417.503 38.4148 416.229 38.9048C415.333 39.2548 414.682 39.6048 414.276 39.9548C413.87 40.3048 413.576 40.7248 413.394 41.2148C414.178 40.4168 415.228 40.0178 416.544 40.0178C417.706 40.0178 418.742 40.4448 419.652 41.2988C420.562 42.1388 421.017 43.2588 421.017 44.6588C421.017 46.1008 420.527 47.2838 419.547 48.2078C418.581 49.1318 417.307 49.5938 415.725 49.5938ZM413.793 46.4018C414.311 46.8778 414.948 47.1158 415.704 47.1158C416.46 47.1158 417.083 46.8848 417.573 46.4228C418.063 45.9608 418.308 45.3728 418.308 44.6588C418.308 43.9448 418.063 43.3568 417.573 42.8948C417.083 42.4188 416.453 42.1808 415.683 42.1808C414.997 42.1808 414.381 42.3978 413.835 42.8318C413.303 43.2658 413.037 43.8468 413.037 44.5748C413.037 45.3168 413.289 45.9258 413.793 46.4018ZM431.609 47.9978C430.531 49.0618 429.215 49.5938 427.661 49.5938C426.107 49.5938 424.791 49.0618 423.713 47.9978C422.649 46.9198 422.117 45.6038 422.117 44.0498C422.117 42.4958 422.649 41.1868 423.713 40.1228C424.791 39.0448 426.107 38.5058 427.661 38.5058C429.215 38.5058 430.531 39.0448 431.609 40.1228C432.687 41.1868 433.226 42.4958 433.226 44.0498C433.226 45.6038 432.687 46.9198 431.609 47.9978ZM425.624 46.1288C426.17 46.6748 426.849 46.9478 427.661 46.9478C428.473 46.9478 429.152 46.6748 429.698 46.1288C430.244 45.5828 430.517 44.8898 430.517 44.0498C430.517 43.2098 430.244 42.5168 429.698 41.9708C429.152 41.4248 428.473 41.1518 427.661 41.1518C426.849 41.1518 426.17 41.4248 425.624 41.9708C425.092 42.5168 424.826 43.2098 424.826 44.0498C424.826 44.8898 425.092 45.5828 425.624 46.1288ZM444.171 46.7588H445.557V52.1138H442.911V49.2998H436.401V52.1138H433.755V46.7588H435.036C435.638 45.8628 435.939 44.6238 435.939 43.0418V38.7998H444.171V46.7588ZM437.934 46.7588H441.525V41.2358H438.585V43.0418C438.585 44.5258 438.368 45.7648 437.934 46.7588ZM454.853 38.7998H456.869V49.2998H454.223V43.3358L449.288 49.2998H447.272V38.7998H449.918V44.7638L454.853 38.7998ZM466.911 43.9238C467.891 44.3998 468.381 45.1978 468.381 46.3178C468.381 47.1998 468.073 47.9208 467.457 48.4808C466.855 49.0268 465.994 49.2998 464.874 49.2998H459.351V38.7998H464.454C465.56 38.7998 466.414 39.0728 467.016 39.6188C467.632 40.1648 467.94 40.8788 467.94 41.7608C467.94 42.6848 467.597 43.4058 466.911 43.9238ZM464.202 41.0258H461.892V42.9158H464.202C464.972 42.9158 465.357 42.6008 465.357 41.9708C465.357 41.3408 464.972 41.0258 464.202 41.0258ZM464.559 47.0108C465.343 47.0108 465.735 46.6748 465.735 46.0028C465.735 45.7088 465.63 45.4778 465.42 45.3098C465.21 45.1418 464.923 45.0578 464.559 45.0578H461.892V47.0108H464.559ZM482.383 38.7998H485.092V49.2998H470.077V38.7998H472.786V46.7588H476.23V38.7998H478.939V46.7588H482.383V38.7998ZM489.859 45.1628C490.223 46.4788 491.21 47.1368 492.82 47.1368C493.856 47.1368 494.64 46.7868 495.172 46.0868L497.356 47.3468C496.32 48.8448 494.794 49.5938 492.778 49.5938C491.042 49.5938 489.649 49.0688 488.599 48.0188C487.549 46.9688 487.024 45.6458 487.024 44.0498C487.024 42.4678 487.542 41.1518 488.578 40.1018C489.614 39.0378 490.944 38.5058 492.568 38.5058C494.108 38.5058 495.375 39.0378 496.369 40.1018C497.377 41.1658 497.881 42.4818 497.881 44.0498C497.881 44.3998 497.846 44.7708 497.776 45.1628H489.859ZM489.817 43.0628H495.172C495.018 42.3488 494.696 41.8168 494.206 41.4668C493.73 41.1168 493.184 40.9418 492.568 40.9418C491.84 40.9418 491.238 41.1308 490.762 41.5088C490.286 41.8728 489.971 42.3908 489.817 43.0628ZM510.692 38.7998V49.2998H508.067V43.1678L505.4 47.3678H505.064L502.376 43.1258V49.2998H499.772V38.7998H502.439L505.232 43.2098L508.025 38.7998H510.692ZM518.162 49.5938C516.58 49.5938 515.257 49.0618 514.193 47.9978C513.143 46.9338 512.618 45.6178 512.618 44.0498C512.618 42.4818 513.143 41.1658 514.193 40.1018C515.257 39.0378 516.58 38.5058 518.162 38.5058C519.184 38.5058 520.115 38.7508 520.955 39.2408C521.795 39.7308 522.432 40.3888 522.866 41.2148L520.535 42.5798C520.325 42.1458 520.003 41.8028 519.569 41.5508C519.149 41.2988 518.673 41.1728 518.141 41.1728C517.329 41.1728 516.657 41.4458 516.125 41.9918C515.593 42.5238 515.327 43.2098 515.327 44.0498C515.327 44.8758 515.593 45.5618 516.125 46.1078C516.657 46.6398 517.329 46.9058 518.141 46.9058C518.687 46.9058 519.17 46.7868 519.59 46.5488C520.024 46.2968 520.346 45.9538 520.556 45.5198L522.908 46.8638C522.446 47.6898 521.795 48.3548 520.955 48.8588C520.115 49.3488 519.184 49.5938 518.162 49.5938ZM532.618 38.7998V49.2998H529.972V46.0238H529.027L526.612 49.2998H523.483L526.108 45.7088C525.436 45.4288 524.897 44.9878 524.491 44.3858C524.099 43.7698 523.903 43.1118 523.903 42.4118C523.903 41.4318 524.253 40.5848 524.953 39.8708C525.653 39.1568 526.57 38.7998 527.704 38.7998H532.618ZM527.914 41.2148C527.522 41.2148 527.193 41.3338 526.927 41.5718C526.675 41.7958 526.549 42.1038 526.549 42.4958C526.549 42.8738 526.675 43.1748 526.927 43.3988C527.193 43.6228 527.522 43.7348 527.914 43.7348H529.972V41.2148H527.914ZM10.9988 67.7998V78.2998H8.37384V72.1678L5.70684 76.3678H5.37084L2.68284 72.1258V78.2998H0.0788438V67.7998H2.74584L5.53884 72.2098L8.33184 67.7998H10.9988ZM15.7594 74.1628C16.1234 75.4788 17.1104 76.1368 18.7204 76.1368C19.7564 76.1368 20.5404 75.7868 21.0724 75.0868L23.2564 76.3468C22.2204 77.8448 20.6944 78.5938 18.6784 78.5938C16.9424 78.5938 15.5494 78.0688 14.4994 77.0188C13.4494 75.9688 12.9244 74.6458 12.9244 73.0498C12.9244 71.4678 13.4424 70.1518 14.4784 69.1018C15.5144 68.0378 16.8444 67.5058 18.4684 67.5058C20.0084 67.5058 21.2754 68.0378 22.2694 69.1018C23.2774 70.1658 23.7814 71.4818 23.7814 73.0498C23.7814 73.3998 23.7464 73.7708 23.6764 74.1628H15.7594ZM15.7174 72.0628H21.0724C20.9184 71.3488 20.5964 70.8168 20.1064 70.4668C19.6304 70.1168 19.0844 69.9418 18.4684 69.9418C17.7404 69.9418 17.1384 70.1308 16.6624 70.5088C16.1864 70.8728 15.8714 71.3908 15.7174 72.0628ZM30.5886 78.5938C29.0066 78.5938 27.6836 78.0618 26.6196 76.9978C25.5696 75.9338 25.0446 74.6178 25.0446 73.0498C25.0446 71.4818 25.5696 70.1658 26.6196 69.1018C27.6836 68.0378 29.0066 67.5058 30.5886 67.5058C31.6106 67.5058 32.5416 67.7508 33.3816 68.2408C34.2216 68.7308 34.8586 69.3888 35.2926 70.2148L32.9616 71.5798C32.7516 71.1458 32.4296 70.8028 31.9956 70.5508C31.5756 70.2988 31.0996 70.1728 30.5676 70.1728C29.7556 70.1728 29.0836 70.4458 28.5516 70.9918C28.0196 71.5238 27.7536 72.2098 27.7536 73.0498C27.7536 73.8758 28.0196 74.5618 28.5516 75.1078C29.0836 75.6398 29.7556 75.9058 30.5676 75.9058C31.1136 75.9058 31.5966 75.7868 32.0166 75.5488C32.4506 75.2968 32.7726 74.9538 32.9826 74.5198L35.3346 75.8638C34.8726 76.6898 34.2216 77.3548 33.3816 77.8588C32.5416 78.3488 31.6106 78.5938 30.5886 78.5938ZM44.9798 67.7998V70.4038H41.7038V78.2998H38.9948V70.4038H35.6768V67.7998H44.9798ZM48.3053 74.1628C48.6693 75.4788 49.6563 76.1368 51.2663 76.1368C52.3023 76.1368 53.0863 75.7868 53.6183 75.0868L55.8023 76.3468C54.7663 77.8448 53.2403 78.5938 51.2243 78.5938C49.4883 78.5938 48.0953 78.0688 47.0453 77.0188C45.9953 75.9688 45.4703 74.6458 45.4703 73.0498C45.4703 71.4678 45.9883 70.1518 47.0243 69.1018C48.0603 68.0378 49.3903 67.5058 51.0143 67.5058C52.5543 67.5058 53.8213 68.0378 54.8153 69.1018C55.8233 70.1658 56.3273 71.4818 56.3273 73.0498C56.3273 73.3998 56.2923 73.7708 56.2223 74.1628H48.3053ZM48.2633 72.0628H53.6183C53.4643 71.3488 53.1423 70.8168 52.6523 70.4668C52.1763 70.1168 51.6303 69.9418 51.0143 69.9418C50.2863 69.9418 49.6843 70.1308 49.2083 70.5088C48.7323 70.8728 48.4173 71.3908 48.2633 72.0628ZM60.9477 75.4018L59.3727 81.2398H57.1677L58.0077 75.4018H60.9477ZM76.0534 67.7998H78.0694V78.2998H75.4234V72.3358L70.4884 78.2998H68.4724V67.7998H71.1184V73.7638L76.0534 67.7998ZM96.7215 67.7998V78.2998H94.0965V72.1678L91.4295 76.3678H91.0935L88.4055 72.1258V78.2998H85.8015V67.7998H88.4685L91.2615 72.2098L94.0545 67.7998H96.7215ZM103.939 71.1598C105.129 71.1598 106.088 71.4888 106.816 72.1468C107.544 72.7908 107.908 73.6518 107.908 74.7298C107.908 75.8078 107.544 76.6758 106.816 77.3338C106.088 77.9778 105.129 78.2998 103.939 78.2998H99.1931V67.7998H101.902V71.1598H103.939ZM109.063 67.7998H111.772V78.2998H109.063V67.7998ZM103.96 75.9058C104.338 75.9058 104.646 75.8008 104.884 75.5908C105.136 75.3668 105.262 75.0798 105.262 74.7298C105.262 74.3798 105.136 74.0928 104.884 73.8688C104.646 73.6448 104.338 73.5328 103.96 73.5328H101.902V75.9058H103.96ZM124.494 78.5938C122.912 78.5938 121.589 78.0618 120.525 76.9978C119.475 75.9338 118.95 74.6178 118.95 73.0498C118.95 71.4818 119.475 70.1658 120.525 69.1018C121.589 68.0378 122.912 67.5058 124.494 67.5058C125.516 67.5058 126.447 67.7508 127.287 68.2408C128.127 68.7308 128.764 69.3888 129.198 70.2148L126.867 71.5798C126.657 71.1458 126.335 70.8028 125.901 70.5508C125.481 70.2988 125.005 70.1728 124.473 70.1728C123.661 70.1728 122.989 70.4458 122.457 70.9918C121.925 71.5238 121.659 72.2098 121.659 73.0498C121.659 73.8758 121.925 74.5618 122.457 75.1078C122.989 75.6398 123.661 75.9058 124.473 75.9058C125.019 75.9058 125.502 75.7868 125.922 75.5488C126.356 75.2968 126.678 74.9538 126.888 74.5198L129.24 75.8638C128.778 76.6898 128.127 77.3548 127.287 77.8588C126.447 78.3488 125.516 78.5938 124.494 78.5938ZM142.116 67.5058C143.53 67.5058 144.734 68.0448 145.728 69.1228C146.736 70.1868 147.24 71.4958 147.24 73.0498C147.24 74.6038 146.736 75.9198 145.728 76.9978C144.734 78.0618 143.53 78.5938 142.116 78.5938C140.646 78.5938 139.512 78.0828 138.714 77.0608V82.4998H136.005V67.7998H138.714V69.0388C139.512 68.0168 140.646 67.5058 142.116 67.5058ZM139.533 75.1918C140.079 75.7378 140.772 76.0108 141.612 76.0108C142.452 76.0108 143.145 75.7378 143.691 75.1918C144.251 74.6318 144.531 73.9178 144.531 73.0498C144.531 72.1818 144.251 71.4748 143.691 70.9288C143.145 70.3688 142.452 70.0888 141.612 70.0888C140.772 70.0888 140.079 70.3688 139.533 70.9288C138.987 71.4748 138.714 72.1818 138.714 73.0498C138.714 73.9178 138.987 74.6318 139.533 75.1918ZM157.13 67.7998H159.839V78.2998H157.13V77.0608C156.318 78.0828 155.177 78.5938 153.707 78.5938C152.307 78.5938 151.103 78.0618 150.095 76.9978C149.101 75.9198 148.604 74.6038 148.604 73.0498C148.604 71.4958 149.101 70.1868 150.095 69.1228C151.103 68.0448 152.307 67.5058 153.707 67.5058C155.177 67.5058 156.318 68.0168 157.13 69.0388V67.7998ZM152.132 75.1918C152.678 75.7378 153.371 76.0108 154.211 76.0108C155.051 76.0108 155.744 75.7378 156.29 75.1918C156.85 74.6318 157.13 73.9178 157.13 73.0498C157.13 72.1818 156.85 71.4748 156.29 70.9288C155.744 70.3688 155.051 70.0888 154.211 70.0888C153.371 70.0888 152.678 70.3688 152.132 70.9288C151.586 71.4748 151.313 72.1818 151.313 73.0498C151.313 73.9178 151.586 74.6318 152.132 75.1918ZM171.746 75.7588H173.132V81.1138H170.486V78.2998H163.976V81.1138H161.33V75.7588H162.611C163.213 74.8628 163.514 73.6238 163.514 72.0418V67.7998H171.746V75.7588ZM165.509 75.7588H169.1V70.2358H166.16V72.0418C166.16 73.5258 165.943 74.7648 165.509 75.7588ZM183.382 76.9978C182.304 78.0618 180.988 78.5938 179.434 78.5938C177.88 78.5938 176.564 78.0618 175.486 76.9978C174.422 75.9198 173.89 74.6038 173.89 73.0498C173.89 71.4958 174.422 70.1868 175.486 69.1228C176.564 68.0448 177.88 67.5058 179.434 67.5058C180.988 67.5058 182.304 68.0448 183.382 69.1228C184.46 70.1868 184.999 71.4958 184.999 73.0498C184.999 74.6038 184.46 75.9198 183.382 76.9978ZM177.397 75.1288C177.943 75.6748 178.622 75.9478 179.434 75.9478C180.246 75.9478 180.925 75.6748 181.471 75.1288C182.017 74.5828 182.29 73.8898 182.29 73.0498C182.29 72.2098 182.017 71.5168 181.471 70.9708C180.925 70.4248 180.246 70.1518 179.434 70.1518C178.622 70.1518 177.943 70.4248 177.397 70.9708C176.865 71.5168 176.599 72.2098 176.599 73.0498C176.599 73.8898 176.865 74.5828 177.397 75.1288ZM191.903 78.5938C190.321 78.5938 188.998 78.0618 187.934 76.9978C186.884 75.9338 186.359 74.6178 186.359 73.0498C186.359 71.4818 186.884 70.1658 187.934 69.1018C188.998 68.0378 190.321 67.5058 191.903 67.5058C192.925 67.5058 193.856 67.7508 194.696 68.2408C195.536 68.7308 196.173 69.3888 196.607 70.2148L194.276 71.5798C194.066 71.1458 193.744 70.8028 193.31 70.5508C192.89 70.2988 192.414 70.1728 191.882 70.1728C191.07 70.1728 190.398 70.4458 189.866 70.9918C189.334 71.5238 189.068 72.2098 189.068 73.0498C189.068 73.8758 189.334 74.5618 189.866 75.1078C190.398 75.6398 191.07 75.9058 191.882 75.9058C192.428 75.9058 192.911 75.7868 193.331 75.5488C193.765 75.2968 194.087 74.9538 194.297 74.5198L196.649 75.8638C196.187 76.6898 195.536 77.3548 194.696 77.8588C193.856 78.3488 192.925 78.5938 191.903 78.5938ZM206.294 67.7998V70.4038H203.018V78.2998H200.309V70.4038H196.991V67.7998H206.294ZM212.487 71.1598C213.677 71.1598 214.636 71.4888 215.364 72.1468C216.092 72.7908 216.456 73.6518 216.456 74.7298C216.456 75.8078 216.092 76.6758 215.364 77.3338C214.636 77.9778 213.677 78.2998 212.487 78.2998H207.741V67.7998H210.45V71.1598H212.487ZM212.508 75.9058C212.886 75.9058 213.194 75.8008 213.432 75.5908C213.684 75.3668 213.81 75.0798 213.81 74.7298C213.81 74.3798 213.684 74.0928 213.432 73.8688C213.194 73.6448 212.886 73.5328 212.508 73.5328H210.45V75.9058H212.508ZM227.714 67.5058C229.268 67.5058 230.584 68.0448 231.662 69.1228C232.74 70.1868 233.279 71.4958 233.279 73.0498C233.279 74.6038 232.74 75.9198 231.662 76.9978C230.584 78.0618 229.268 78.5938 227.714 78.5938C226.398 78.5938 225.25 78.1948 224.27 77.3968C223.29 76.5988 222.66 75.5698 222.38 74.3098H220.868V78.2998H218.159V67.7998H220.868V71.7688H222.401C222.681 70.5228 223.311 69.5008 224.291 68.7028C225.271 67.9048 226.412 67.5058 227.714 67.5058ZM225.677 75.1288C226.223 75.6748 226.902 75.9478 227.714 75.9478C228.526 75.9478 229.205 75.6748 229.751 75.1288C230.297 74.5828 230.57 73.8898 230.57 73.0498C230.57 72.2098 230.297 71.5168 229.751 70.9708C229.205 70.4248 228.526 70.1518 227.714 70.1518C226.902 70.1518 226.223 70.4248 225.677 70.9708C225.145 71.5168 224.879 72.2098 224.879 73.0498C224.879 73.8898 225.145 74.5828 225.677 75.1288ZM247.99 72.9238C248.97 73.3998 249.46 74.1978 249.46 75.3178C249.46 76.1998 249.152 76.9208 248.536 77.4808C247.934 78.0268 247.073 78.2998 245.953 78.2998H240.43V67.7998H245.533C246.639 67.7998 247.493 68.0728 248.095 68.6188C248.711 69.1648 249.019 69.8788 249.019 70.7608C249.019 71.6848 248.676 72.4058 247.99 72.9238ZM245.281 70.0258H242.971V71.9158H245.281C246.051 71.9158 246.436 71.6008 246.436 70.9708C246.436 70.3408 246.051 70.0258 245.281 70.0258ZM245.638 76.0108C246.422 76.0108 246.814 75.6748 246.814 75.0028C246.814 74.7088 246.709 74.4778 246.499 74.3098C246.289 74.1418 246.002 74.0578 245.638 74.0578H242.971V76.0108H245.638ZM259.136 67.7998H261.845V78.2998H259.136V77.0608C258.324 78.0828 257.183 78.5938 255.713 78.5938C254.313 78.5938 253.109 78.0618 252.101 76.9978C251.107 75.9198 250.61 74.6038 250.61 73.0498C250.61 71.4958 251.107 70.1868 252.101 69.1228C253.109 68.0448 254.313 67.5058 255.713 67.5058C257.183 67.5058 258.324 68.0168 259.136 69.0388V67.7998ZM254.138 75.1918C254.684 75.7378 255.377 76.0108 256.217 76.0108C257.057 76.0108 257.75 75.7378 258.296 75.1918C258.856 74.6318 259.136 73.9178 259.136 73.0498C259.136 72.1818 258.856 71.4748 258.296 70.9288C257.75 70.3688 257.057 70.0888 256.217 70.0888C255.377 70.0888 254.684 70.3688 254.138 70.9288C253.592 71.4748 253.319 72.1818 253.319 73.0498C253.319 73.9178 253.592 74.6318 254.138 75.1918ZM269.3 78.5938C267.718 78.5938 266.395 78.0618 265.331 76.9978C264.281 75.9338 263.755 74.6178 263.755 73.0498C263.755 71.4818 264.281 70.1658 265.331 69.1018C266.395 68.0378 267.718 67.5058 269.3 67.5058C270.322 67.5058 271.253 67.7508 272.093 68.2408C272.933 68.7308 273.57 69.3888 274.004 70.2148L271.673 71.5798C271.463 71.1458 271.141 70.8028 270.707 70.5508C270.287 70.2988 269.811 70.1728 269.279 70.1728C268.467 70.1728 267.795 70.4458 267.263 70.9918C266.731 71.5238 266.465 72.2098 266.465 73.0498C266.465 73.8758 266.731 74.5618 267.263 75.1078C267.795 75.6398 268.467 75.9058 269.279 75.9058C269.825 75.9058 270.308 75.7868 270.728 75.5488C271.162 75.2968 271.484 74.9538 271.694 74.5198L274.046 75.8638C273.584 76.6898 272.933 77.3548 272.093 77.8588C271.253 78.3488 270.322 78.5938 269.3 78.5938ZM286.963 72.9448C288.027 73.4628 288.559 74.2958 288.559 75.4438C288.559 76.3398 288.188 77.0888 287.446 77.6908C286.704 78.2928 285.661 78.5938 284.317 78.5938C282.189 78.5938 280.74 77.7538 279.97 76.0738L282.175 74.7718C282.511 75.7238 283.232 76.1998 284.338 76.1998C284.842 76.1998 285.227 76.1018 285.493 75.9058C285.773 75.7098 285.913 75.4438 285.913 75.1078C285.913 74.4638 285.5 74.1418 284.674 74.1418H283.183V71.8318H284.317C285.129 71.8318 285.535 71.5098 285.535 70.8658C285.535 70.5578 285.416 70.3128 285.178 70.1308C284.94 69.9488 284.625 69.8578 284.233 69.8578C283.323 69.8578 282.672 70.2988 282.28 71.1808L280.096 69.9208C280.894 68.3108 282.259 67.5058 284.191 67.5058C285.395 67.5058 286.347 67.8138 287.047 68.4298C287.761 69.0318 288.118 69.7668 288.118 70.6348C288.118 71.6568 287.733 72.4268 286.963 72.9448ZM298.244 67.7998H300.953V78.2998H298.244V77.0608C297.432 78.0828 296.291 78.5938 294.821 78.5938C293.421 78.5938 292.217 78.0618 291.209 76.9978C290.215 75.9198 289.718 74.6038 289.718 73.0498C289.718 71.4958 290.215 70.1868 291.209 69.1228C292.217 68.0448 293.421 67.5058 294.821 67.5058C296.291 67.5058 297.432 68.0168 298.244 69.0388V67.7998ZM293.246 75.1918C293.792 75.7378 294.485 76.0108 295.325 76.0108C296.165 76.0108 296.858 75.7378 297.404 75.1918C297.964 74.6318 298.244 73.9178 298.244 73.0498C298.244 72.1818 297.964 71.4748 297.404 70.9288C296.858 70.3688 296.165 70.0888 295.325 70.0888C294.485 70.0888 293.792 70.3688 293.246 70.9288C292.7 71.4748 292.427 72.1818 292.427 73.0498C292.427 73.9178 292.7 74.6318 293.246 75.1918ZM313.007 67.7998V78.2998H310.298V70.3408H306.119V78.2998H303.41V67.7998H313.007ZM323.07 67.7998H325.086V78.2998H322.44V72.3358L317.505 78.2998H315.489V67.7998H318.135V73.7638L323.07 67.7998ZM339.874 67.7998H342.583V78.2998H327.568V67.7998H330.277V75.7588H333.721V67.7998H336.43V75.7588H339.874V67.7998ZM347.35 74.1628C347.714 75.4788 348.701 76.1368 350.311 76.1368C351.347 76.1368 352.131 75.7868 352.663 75.0868L354.847 76.3468C353.811 77.8448 352.285 78.5938 350.269 78.5938C348.533 78.5938 347.14 78.0688 346.09 77.0188C345.04 75.9688 344.515 74.6458 344.515 73.0498C344.515 71.4678 345.033 70.1518 346.069 69.1018C347.105 68.0378 348.435 67.5058 350.059 67.5058C351.599 67.5058 352.866 68.0378 353.86 69.1018C354.868 70.1658 355.372 71.4818 355.372 73.0498C355.372 73.3998 355.337 73.7708 355.267 74.1628H347.35ZM347.308 72.0628H352.663C352.509 71.3488 352.187 70.8168 351.697 70.4668C351.221 70.1168 350.675 69.9418 350.059 69.9418C349.331 69.9418 348.729 70.1308 348.253 70.5088C347.777 70.8728 347.462 71.3908 347.308 72.0628ZM368.183 67.7998V78.2998H365.558V72.1678L362.891 76.3678H362.555L359.867 72.1258V78.2998H357.263V67.7998H359.93L362.723 72.2098L365.516 67.7998H368.183ZM371.159 73.3648L370.592 67.7998V63.5998H373.847V67.7998L373.301 73.3648H371.159ZM373.49 78.0478C373.14 78.3978 372.72 78.5728 372.23 78.5728C371.74 78.5728 371.32 78.3978 370.97 78.0478C370.62 77.6978 370.445 77.2778 370.445 76.7878C370.445 76.2978 370.62 75.8778 370.97 75.5278C371.32 75.1778 371.74 75.0028 372.23 75.0028C372.72 75.0028 373.14 75.1778 373.49 75.5278C373.84 75.8778 374.015 76.2978 374.015 76.7878C374.015 77.2778 373.84 77.6978 373.49 78.0478Z" fill="#2E2E2E"/>
</svg>
